<svg width="108" height="38" viewBox="0 0 108 38" fill="none" xmlns="http://www.w3.org/2000/svg">
<path d="M100.355 29.0042C100.355 31.0013 98.1611 32.0744 96.0657 32.0744C93.9704 32.0744 91.7259 31.0013 91.7259 29.0042C91.7259 27.007 93.8722 25.9812 96.0657 25.9812C98.2593 25.9812 100.355 27.0543 100.355 29.0042ZM100.256 36.9017H107.616V21.3503C107.616 14.9151 103.425 11.2119 96.2585 11.2119C92.9445 11.2119 89.6305 12.0413 87.6298 13.1145V19.6952C89.6269 18.5747 92.0169 17.698 94.5524 17.698C98.3066 17.698 100.256 19.4041 100.256 21.645V22.7181C99.2815 21.8414 96.9424 20.9138 94.4069 20.9138C89.0921 20.9138 84.705 24.1296 84.705 29.0042C84.705 34.268 89.0922 37.4874 94.1632 37.4874C97.0879 37.4874 99.3797 36.3161 100.256 35.3411V36.9017ZM66.7309 22.1797C66.7309 19.9389 68.0477 18.0836 70.485 18.0836C72.9223 18.0836 74.141 19.9862 74.141 22.1797V36.9017H81.7948V20.6191C81.7948 14.9151 78.4299 11.2119 73.0678 11.2119C69.3646 11.2119 66.9273 12.8198 65.3158 14.6241C63.8534 12.6743 61.6126 11.2119 58.3932 11.2119C55.4684 11.2119 52.9838 12.4306 51.7142 14.2822V11.7976H44.1113V36.9017H51.7142V22.1797C51.7142 19.9389 53.0311 18.0836 55.4175 18.0836C57.8038 18.0836 59.1207 19.9862 59.1207 22.1797V36.9017H66.7236V22.1797H66.7309Z" fill="black"/>
<path d="M35.1551 0H35.0496C32.4559 0 30.3896 2.01168 30.3896 4.65632C30.3896 7.30097 32.4523 9.26172 35.046 9.26172H35.1515C37.6906 9.26172 39.8078 7.25004 39.8078 4.65632C39.8078 2.06261 37.6943 0 35.1551 0Z" fill="black"/>
<path d="M26.3228 15.6055C26.4756 14.2741 26.0536 13.0009 25.2387 12.0441C24.3911 11.1202 23.1761 10.5454 21.8374 10.5345H21.7319C19.2546 10.5126 17.2466 12.3315 17.0538 14.8052C17.0538 14.8052 17.0356 15.1617 17.0356 15.169C16.8573 17.5844 14.8529 19.3997 12.4811 19.3779L11.7172 19.3378C10.615 19.3269 9.60367 19.6871 8.80336 20.3018C8.79609 20.3055 8.79245 20.3128 8.78517 20.3164C8.75243 20.3419 8.71606 20.371 8.68332 20.3964C8.47233 20.5601 8.27225 20.7347 8.094 20.9312C7.97032 21.0767 7.85755 21.2331 7.75205 21.3932V1.31641H0V36.9009H7.75205V26.6497C8.6142 27.9775 10.1202 28.796 11.8336 28.7232C11.8336 28.7232 12.1901 28.6978 12.1974 28.6978C14.6165 28.5814 16.6609 30.3493 16.9301 32.7029L16.9374 32.8266C16.9374 32.8448 16.9374 32.863 16.9374 32.8812C16.9374 33.3905 17.0174 33.8743 17.1666 34.3254C17.8068 36.4316 19.8148 37.8285 22.1394 37.563C23.2198 37.4393 24.1547 36.9628 24.8568 36.2679C25.7735 35.4349 26.3592 34.2381 26.3592 32.8812C26.3592 30.2365 24.242 28.2249 21.7028 28.2249H21.5973C21.4191 28.2249 21.2445 28.2358 21.0699 28.254L20.8589 28.2649C18.6398 28.2831 16.359 26.2823 16.3772 23.7359C16.399 21.1895 18.7272 19.6907 21.1426 19.8071C21.1499 19.8071 21.5064 19.8326 21.5064 19.8326C23.9837 19.9417 26.0354 18.1738 26.3155 15.711L26.3264 15.6055H26.3228Z" fill="black"/>
<path d="M38.9423 11.7969H31.3394V36.901H38.9423V11.7969Z" fill="black"/>
</svg>
